<?xml version="1.0" encoding="utf-8" standalone="no"?>
<!DOCTYPE svg PUBLIC "-//W3C//DTD SVG 1.1//EN"
  "http://www.w3.org/Graphics/SVG/1.1/DTD/svg11.dtd">
<svg xmlns:xlink="http://www.w3.org/1999/xlink" width="405pt" height="236.16pt" viewBox="0 0 405 236.16" xmlns="http://www.w3.org/2000/svg" version="1.1">
 <metadata>
  <rdf:RDF xmlns:dc="http://purl.org/dc/elements/1.1/" xmlns:cc="http://creativecommons.org/ns#" xmlns:rdf="http://www.w3.org/1999/02/22-rdf-syntax-ns#">
   <cc:Work>
    <dc:type rdf:resource="http://purl.org/dc/dcmitype/StillImage"/>
    <dc:date>2026-02-04T22:35:03.277674</dc:date>
    <dc:format>image/svg+xml</dc:format>
    <dc:creator>
     <cc:Agent>
      <dc:title>Matplotlib v3.10.8, https://matplotlib.org/</dc:title>
     </cc:Agent>
    </dc:creator>
   </cc:Work>
  </rdf:RDF>
 </metadata>
 <defs>
  <style type="text/css">*{stroke-linejoin: round; stroke-linecap: butt}</style>
 </defs>
 <g id="figure_1">
  <g id="patch_1">
   <path d="M 0 236.16 
L 405 236.16 
L 405 0 
L 0 0 
z
" style="fill: #ffffff"/>
  </g>
  <g id="axes_1">
   <g id="patch_2">
    <path d="M 7.2 228.96 
L 397.8 228.96 
L 397.8 7.2 
L 7.2 7.2 
z
" style="fill: #ffffff"/>
   </g>
   <g id="matplotlib.axis_1">
    <g id="xtick_1">
     <g id="line2d_1">
      <path d="M 24.65839 228.96 
L 24.65839 7.2 
" clip-path="url(#pfacfddc7c3)" style="fill: none; stroke: #cccccc; stroke-width: 1.5; stroke-linecap: round"/>
     </g>
    </g>
    <g id="xtick_2">
     <g id="line2d_2">
      <path d="M 83.889567 228.96 
L 83.889567 7.2 
" clip-path="url(#pfacfddc7c3)" style="fill: none; stroke: #cccccc; stroke-width: 1.5; stroke-linecap: round"/>
     </g>
    </g>
    <g id="xtick_3">
     <g id="line2d_3">
      <path d="M 143.120745 228.96 
L 143.120745 7.2 
" clip-path="url(#pfacfddc7c3)" style="fill: none; stroke: #cccccc; stroke-width: 1.5; stroke-linecap: round"/>
     </g>
    </g>
    <g id="xtick_4">
     <g id="line2d_4">
      <path d="M 202.351922 228.96 
L 202.351922 7.2 
" clip-path="url(#pfacfddc7c3)" style="fill: none; stroke: #cccccc; stroke-width: 1.5; stroke-linecap: round"/>
     </g>
    </g>
    <g id="xtick_5">
     <g id="line2d_5">
      <path d="M 261.5831 228.96 
L 261.5831 7.2 
" clip-path="url(#pfacfddc7c3)" style="fill: none; stroke: #cccccc; stroke-width: 1.5; stroke-linecap: round"/>
     </g>
    </g>
    <g id="xtick_6">
     <g id="line2d_6">
      <path d="M 320.814277 228.96 
L 320.814277 7.2 
" clip-path="url(#pfacfddc7c3)" style="fill: none; stroke: #cccccc; stroke-width: 1.5; stroke-linecap: round"/>
     </g>
    </g>
    <g id="xtick_7">
     <g id="line2d_7">
      <path d="M 380.045455 228.96 
L 380.045455 7.2 
" clip-path="url(#pfacfddc7c3)" style="fill: none; stroke: #cccccc; stroke-width: 1.5; stroke-linecap: round"/>
     </g>
    </g>
   </g>
   <g id="matplotlib.axis_2">
    <g id="ytick_1">
     <g id="line2d_8">
      <path d="M 7.2 208.8 
L 397.8 208.8 
" clip-path="url(#pfacfddc7c3)" style="fill: none; stroke: #cccccc; stroke-width: 1.5; stroke-linecap: round"/>
     </g>
    </g>
    <g id="ytick_2">
     <g id="line2d_9">
      <path d="M 7.2 168.48 
L 397.8 168.48 
" clip-path="url(#pfacfddc7c3)" style="fill: none; stroke: #cccccc; stroke-width: 1.5; stroke-linecap: round"/>
     </g>
    </g>
    <g id="ytick_3">
     <g id="line2d_10">
      <path d="M 7.2 128.16 
L 397.8 128.16 
" clip-path="url(#pfacfddc7c3)" style="fill: none; stroke: #cccccc; stroke-width: 1.5; stroke-linecap: round"/>
     </g>
    </g>
    <g id="ytick_4">
     <g id="line2d_11">
      <path d="M 7.2 87.84 
L 397.8 87.84 
" clip-path="url(#pfacfddc7c3)" style="fill: none; stroke: #cccccc; stroke-width: 1.5; stroke-linecap: round"/>
     </g>
    </g>
    <g id="ytick_5">
     <g id="line2d_12">
      <path d="M 7.2 47.52 
L 397.8 47.52 
" clip-path="url(#pfacfddc7c3)" style="fill: none; stroke: #cccccc; stroke-width: 1.5; stroke-linecap: round"/>
     </g>
    </g>
    <g id="ytick_6">
     <g id="line2d_13">
      <path d="M 7.2 7.2 
L 397.8 7.2 
" clip-path="url(#pfacfddc7c3)" style="fill: none; stroke: #cccccc; stroke-width: 1.5; stroke-linecap: round"/>
     </g>
    </g>
   </g>
   <g id="FillBetweenPolyCollection_1">
    <defs>
     <path id="m43217b4898" d="M 24.954545 -80.366675 
L 24.954545 -80.366675 
L 25.398965 -80.155436 
L 25.843384 -79.944652 
L 26.287803 -79.734321 
L 26.732222 -79.524444 
L 27.176641 -79.315021 
L 27.62106 -79.106052 
L 28.06548 -78.897537 
L 28.509899 -78.689476 
L 28.954318 -78.481869 
L 29.398737 -78.274716 
L 29.843156 -78.068017 
L 30.287575 -77.861772 
L 30.731995 -77.655981 
L 31.176414 -77.450644 
L 31.620833 -77.245761 
L 32.065252 -77.041332 
L 32.509671 -76.837357 
L 32.95409 -76.633836 
L 33.39851 -76.430768 
L 33.842929 -76.228155 
L 34.287348 -76.025996 
L 34.731767 -75.824291 
L 35.176186 -75.623039 
L 35.620605 -75.422242 
L 36.065024 -75.221899 
L 36.509444 -75.022009 
L 36.953863 -74.822574 
L 37.398282 -74.623593 
L 37.842701 -74.425065 
L 38.28712 -74.226992 
L 38.731539 -74.029373 
L 39.175959 -73.832207 
L 39.620378 -73.635496 
L 40.064797 -73.439238 
L 40.509216 -73.243435 
L 40.953635 -73.048085 
L 41.398054 -72.853189 
L 41.842474 -72.658748 
L 42.286893 -72.46476 
L 42.731312 -72.271227 
L 43.175731 -72.078147 
L 43.62015 -71.885521 
L 44.064569 -71.69335 
L 44.508989 -71.501632 
L 44.953408 -71.310368 
L 45.397827 -71.119558 
L 45.842246 -70.929203 
L 46.286665 -70.739301 
L 46.731084 -70.549853 
L 47.175503 -70.360859 
L 47.619923 -70.172319 
L 48.064342 -69.984233 
L 48.508761 -69.796601 
L 48.95318 -69.609424 
L 49.397599 -69.4227 
L 49.842018 -69.23643 
L 50.286438 -69.050614 
L 50.730857 -68.865252 
L 51.175276 -68.680344 
L 51.619695 -68.495889 
L 52.064114 -68.311889 
L 52.508533 -68.128343 
L 52.952953 -67.945251 
L 53.397372 -67.762613 
L 53.841791 -67.580429 
L 54.28621 -67.398699 
L 54.730629 -67.217422 
L 55.175048 -67.0366 
L 55.619468 -66.856232 
L 56.063887 -66.676318 
L 56.508306 -66.496857 
L 56.952725 -66.317851 
L 57.397144 -66.139299 
L 57.841563 -65.9612 
L 58.285982 -65.783556 
L 58.730402 -65.606366 
L 59.174821 -65.429629 
L 59.61924 -65.253347 
L 60.063659 -65.077518 
L 60.508078 -64.902144 
L 60.952497 -64.727223 
L 61.396917 -64.552757 
L 61.841336 -64.378744 
L 62.285755 -64.205186 
L 62.730174 -64.032081 
L 63.174593 -63.85943 
L 63.619012 -63.687234 
L 64.063432 -63.515491 
L 64.507851 -63.344202 
L 64.95227 -63.173368 
L 65.396689 -63.002987 
L 65.841108 -62.83306 
L 66.285527 -62.663587 
L 66.729947 -62.494569 
L 67.174366 -62.326004 
L 67.618785 -62.157893 
L 68.063204 -61.990236 
L 68.507623 -61.823033 
L 68.952042 -61.656284 
L 69.396461 -61.489989 
L 69.840881 -61.324149 
L 70.2853 -61.158762 
L 70.729719 -60.993829 
L 71.174138 -60.82935 
L 71.618557 -60.665325 
L 72.062976 -60.501753 
L 72.507396 -60.338636 
L 72.951815 -60.175973 
L 73.396234 -60.013764 
L 73.840653 -59.852009 
L 74.285072 -59.690708 
L 74.729491 -59.529861 
L 75.173911 -59.369468 
L 75.61833 -59.209528 
L 76.062749 -59.050043 
L 76.507168 -58.891012 
L 76.951587 -58.732435 
L 77.396006 -58.574311 
L 77.840426 -58.416642 
L 78.284845 -58.259427 
L 78.729264 -58.102665 
L 79.173683 -57.946358 
L 79.618102 -57.790504 
L 80.062521 -57.635105 
L 80.50694 -57.48016 
L 80.95136 -57.325668 
L 81.395779 -57.171631 
L 81.840198 -57.018047 
L 82.284617 -56.864917 
L 82.729036 -56.712242 
L 83.173455 -56.56002 
L 83.617875 -56.408253 
L 84.062294 -56.256939 
L 84.506713 -56.106079 
L 84.951132 -55.955674 
L 85.395551 -55.805722 
L 85.83997 -55.656224 
L 86.28439 -55.507181 
L 86.728809 -55.358591 
L 87.173228 -55.210455 
L 87.617647 -55.062773 
L 88.062066 -54.915546 
L 88.506485 -54.768772 
L 88.950905 -54.622452 
L 89.395324 -54.476586 
L 89.839743 -54.331174 
L 90.284162 -54.186216 
L 90.728581 -54.041712 
L 91.173 -53.897662 
L 91.61742 -53.754066 
L 92.061839 -53.610924 
L 92.506258 -53.468236 
L 92.950677 -53.326002 
L 93.395096 -53.184222 
L 93.839515 -53.042896 
L 94.283934 -52.902024 
L 94.728354 -52.761606 
L 95.172773 -52.621641 
L 95.617192 -52.482131 
L 96.061611 -52.343075 
L 96.50603 -52.204473 
L 96.950449 -52.066325 
L 97.394869 -51.92863 
L 97.839288 -51.79139 
L 98.283707 -51.654604 
L 98.728126 -51.518271 
L 99.172545 -51.382393 
L 99.616964 -51.246969 
L 100.061384 -51.111998 
L 100.505803 -50.977482 
L 100.950222 -50.843419 
L 101.394641 -50.709811 
L 101.83906 -50.576656 
L 102.283479 -50.443956 
L 102.727899 -50.311709 
L 103.172318 -50.179917 
L 103.616737 -50.048578 
L 104.061156 -49.917694 
L 104.505575 -49.787263 
L 104.949994 -49.657287 
L 105.394413 -49.527764 
L 105.838833 -49.398695 
L 106.283252 -49.27008 
L 106.727671 -49.14192 
L 107.17209 -49.014213 
L 107.616509 -48.88696 
L 108.060928 -48.760161 
L 108.505348 -48.633817 
L 108.949767 -48.507926 
L 109.394186 -48.382489 
L 109.838605 -48.257506 
L 110.283024 -48.132977 
L 110.727443 -48.008902 
L 111.171863 -47.885281 
L 111.616282 -47.762114 
L 112.060701 -47.639401 
L 112.50512 -47.517142 
L 112.949539 -47.395337 
L 113.393958 -47.273986 
L 113.838378 -47.153089 
L 114.282797 -47.032646 
L 114.727216 -46.912657 
L 115.171635 -46.793122 
L 115.616054 -46.674041 
L 116.060473 -46.555414 
L 116.504892 -46.43724 
L 116.949312 -46.319521 
L 117.393731 -46.202256 
L 117.83815 -46.085445 
L 118.282569 -45.969088 
L 118.726988 -45.853184 
L 119.171407 -45.737735 
L 119.615827 -45.62274 
L 120.060246 -45.508198 
L 120.504665 -45.394111 
L 120.949084 -45.280477 
L 121.393503 -45.167298 
L 121.837922 -45.054573 
L 122.282342 -44.942301 
L 122.726761 -44.830484 
L 123.17118 -44.71912 
L 123.615599 -44.608211 
L 124.060018 -44.497755 
L 124.504437 -44.387753 
L 124.948857 -44.278206 
L 125.393276 -44.169112 
L 125.837695 -44.060473 
L 126.282114 -43.952287 
L 126.726533 -43.844555 
L 127.170952 -43.737277 
L 127.615371 -43.630454 
L 128.059791 -43.524084 
L 128.50421 -43.418168 
L 128.948629 -43.312706 
L 129.393048 -43.207699 
L 129.566446 -43.166905 
L 129.393048 -43.20991 
L 128.948629 -43.320858 
L 128.50421 -43.432539 
L 128.059791 -43.544957 
L 127.615371 -43.658121 
L 127.170952 -43.772036 
L 126.726533 -43.886708 
L 126.282114 -44.002146 
L 125.837695 -44.118354 
L 125.393276 -44.23534 
L 124.948857 -44.353111 
L 124.504437 -44.471673 
L 124.060018 -44.591035 
L 123.615599 -44.711202 
L 123.17118 -44.832183 
L 122.726761 -44.953984 
L 122.282342 -45.076613 
L 121.837922 -45.200078 
L 121.393503 -45.324387 
L 120.949084 -45.449546 
L 120.504665 -45.575564 
L 120.060246 -45.702449 
L 119.615827 -45.830209 
L 119.171407 -45.958852 
L 118.726988 -46.088387 
L 118.282569 -46.218821 
L 117.83815 -46.350164 
L 117.393731 -46.482425 
L 116.949312 -46.615611 
L 116.504892 -46.749732 
L 116.060473 -46.884798 
L 115.616054 -47.020816 
L 115.171635 -47.157797 
L 114.727216 -47.29575 
L 114.282797 -47.434685 
L 113.838378 -47.574612 
L 113.393958 -47.715539 
L 112.949539 -47.857478 
L 112.50512 -48.000439 
L 112.060701 -48.144431 
L 111.616282 -48.289466 
L 111.171863 -48.435555 
L 110.727443 -48.582707 
L 110.283024 -48.730934 
L 109.838605 -48.880247 
L 109.394186 -49.030658 
L 108.949767 -49.182178 
L 108.505348 -49.334819 
L 108.060928 -49.488593 
L 107.616509 -49.643512 
L 107.17209 -49.799587 
L 106.727671 -49.956833 
L 106.283252 -50.115261 
L 105.838833 -50.274884 
L 105.394413 -50.435715 
L 104.949994 -50.597768 
L 104.505575 -50.761057 
L 104.061156 -50.925594 
L 103.616737 -51.091395 
L 103.172318 -51.258473 
L 102.727899 -51.426843 
L 102.283479 -51.596519 
L 101.83906 -51.767518 
L 101.394641 -51.939853 
L 100.950222 -52.11354 
L 100.505803 -52.288596 
L 100.061384 -52.465036 
L 99.616964 -52.642877 
L 99.172545 -52.822135 
L 98.728126 -53.002827 
L 98.283707 -53.184971 
L 97.839288 -53.368584 
L 97.394869 -53.553684 
L 96.950449 -53.740289 
L 96.50603 -53.928418 
L 96.061611 -54.11809 
L 95.617192 -54.309324 
L 95.172773 -54.502139 
L 94.728354 -54.696556 
L 94.283934 -54.892595 
L 93.839515 -55.090277 
L 93.395096 -55.289623 
L 92.950677 -55.490654 
L 92.506258 -55.693393 
L 92.061839 -55.897862 
L 91.61742 -56.104083 
L 91.173 -56.312081 
L 90.728581 -56.521879 
L 90.284162 -56.733501 
L 89.839743 -56.946973 
L 89.395324 -57.162319 
L 88.950905 -57.379565 
L 88.506485 -57.598738 
L 88.062066 -57.819864 
L 87.617647 -58.042971 
L 87.173228 -58.268087 
L 86.728809 -58.495242 
L 86.28439 -58.724463 
L 85.83997 -58.955781 
L 85.395551 -59.189226 
L 84.951132 -59.424831 
L 84.506713 -59.662626 
L 84.062294 -59.902645 
L 83.617875 -60.14492 
L 83.173455 -60.389486 
L 82.729036 -60.636378 
L 82.284617 -60.885632 
L 81.840198 -61.137284 
L 81.395779 -61.391371 
L 80.95136 -61.647932 
L 80.50694 -61.907007 
L 80.062521 -62.168635 
L 79.618102 -62.432857 
L 79.173683 -62.699715 
L 78.729264 -62.969254 
L 78.284845 -63.241516 
L 77.840426 -63.516547 
L 77.396006 -63.794394 
L 76.951587 -64.075105 
L 76.507168 -64.358728 
L 76.062749 -64.645313 
L 75.61833 -64.934912 
L 75.173911 -65.227578 
L 74.729491 -65.523365 
L 74.285072 -65.822328 
L 73.840653 -66.124524 
L 73.396234 -66.430014 
L 72.951815 -66.738855 
L 72.507396 -67.051112 
L 72.062976 -67.366847 
L 71.618557 -67.686126 
L 71.174138 -68.009016 
L 70.729719 -68.335586 
L 70.2853 -68.665909 
L 69.840881 -69.000057 
L 69.396461 -69.338107 
L 68.952042 -69.680135 
L 68.507623 -70.026223 
L 68.063204 -70.376452 
L 67.618785 -70.730909 
L 67.174366 -71.089681 
L 66.729947 -71.452859 
L 66.285527 -71.820536 
L 65.841108 -72.192809 
L 65.396689 -72.569777 
L 64.95227 -72.951545 
L 64.507851 -73.338217 
L 64.063432 -73.729905 
L 63.619012 -74.126722 
L 63.174593 -74.528786 
L 62.730174 -74.936217 
L 62.285755 -75.349144 
L 61.841336 -75.767695 
L 61.396917 -76.192007 
L 60.952497 -76.62222 
L 60.508078 -77.058478 
L 60.063659 -77.500933 
L 59.61924 -77.949742 
L 59.174821 -78.405066 
L 58.730402 -78.867076 
L 58.285982 -79.335945 
L 57.841563 -79.811858 
L 57.397144 -80.295004 
L 56.952725 -80.78558 
L 56.508306 -81.283792 
L 56.063887 -81.789856 
L 55.619468 -82.303994 
L 55.175048 -82.826442 
L 54.730629 -83.357441 
L 54.28621 -83.897247 
L 53.841791 -84.446126 
L 53.397372 -85.004357 
L 52.952953 -85.572231 
L 52.508533 -86.150053 
L 52.064114 -86.738144 
L 51.619695 -87.336839 
L 51.175276 -87.94649 
L 50.730857 -88.567469 
L 50.286438 -89.200165 
L 49.842018 -89.844987 
L 49.397599 -90.502368 
L 48.95318 -91.172763 
L 48.508761 -91.856652 
L 48.064342 -92.554543 
L 47.619923 -93.266973 
L 47.175503 -93.99451 
L 46.731084 -94.737757 
L 46.286665 -95.497352 
L 45.842246 -96.273975 
L 45.397827 -97.068348 
L 44.953408 -97.88124 
L 44.508989 -98.71347 
L 44.064569 -99.565915 
L 43.62015 -100.439512 
L 43.175731 -101.335263 
L 42.731312 -102.254246 
L 42.286893 -103.197617 
L 41.842474 -104.166622 
L 41.398054 -105.162604 
L 40.953635 -106.187015 
L 40.509216 -107.241428 
L 40.064797 -108.32755 
L 39.620378 -109.447236 
L 39.175959 -110.602511 
L 38.731539 -111.79559 
L 38.28712 -113.028897 
L 37.842701 -114.305101 
L 37.398282 -115.627144 
L 36.953863 -116.998283 
L 36.509444 -118.422132 
L 36.065024 -119.902723 
L 35.620605 -121.444565 
L 35.176186 -123.052731 
L 34.731767 -124.732949 
L 34.287348 -126.491722 
L 33.842929 -128.336478 
L 33.39851 -130.275749 
L 32.95409 -132.319404 
L 32.509671 -134.478943 
L 32.065252 -136.767878 
L 31.620833 -139.202232 
L 31.176414 -141.801201 
L 30.731995 -144.588052 
L 30.287575 -147.591363 
L 29.843156 -150.846774 
L 29.398737 -154.399521 
L 28.954318 -158.308228 
L 28.509899 -162.650772 
L 28.06548 -167.533762 
L 27.62106 -173.108677 
L 27.176641 -179.601232 
L 26.732222 -187.369521 
L 26.287803 -197.033325 
L 25.843384 -209.814021 
L 25.398965 -228.706584 
L 24.954545 -265.601013 
z
" style="stroke: #c44e52; stroke-opacity: 0.2; stroke-width: 1.5"/>
    </defs>
    <g clip-path="url(#pfacfddc7c3)">
     <use xlink:href="#m43217b4898" x="0" y="236.16" style="fill: #c44e52; fill-opacity: 0.2; stroke: #c44e52; stroke-opacity: 0.2; stroke-width: 1.5"/>
    </g>
   </g>
   <g id="line2d_14">
    <path d="M 25.297137 -1 
L 25.398965 7.453416 
L 25.843384 26.345979 
L 26.732222 48.790479 
L 27.62106 63.051323 
L 28.509899 73.509228 
L 29.398737 81.760479 
L 30.731995 91.571948 
L 32.065252 99.392122 
L 33.39851 105.884251 
L 34.731767 111.427051 
L 36.509444 117.737868 
L 38.28712 123.131103 
L 40.064797 127.83245 
L 41.842474 131.993378 
L 44.064569 136.594085 
L 46.286665 140.662648 
L 48.508761 144.303348 
L 51.175276 148.21351 
L 53.841791 151.713874 
L 56.508306 154.876208 
L 59.61924 158.210258 
L 62.730174 161.223783 
L 66.285527 164.339464 
L 69.840881 167.159943 
L 73.840653 170.035476 
L 77.840426 172.643453 
L 82.284617 175.274368 
L 87.173228 177.891913 
L 92.061839 180.262138 
L 97.394869 182.606316 
L 103.172318 184.901527 
L 109.394186 187.129342 
L 116.060473 189.275202 
L 123.17118 191.327817 
L 130.726306 193.278603 
L 138.72585 195.121193 
L 147.614234 196.93651 
L 156.947036 198.61575 
L 167.168677 200.225064 
L 178.279156 201.739369 
L 189.834054 203.090342 
L 202.27779 204.324779 
L 216.054784 205.461165 
L 230.720617 206.441381 
L 246.275287 207.257865 
L 263.163215 207.91974 
L 281.384401 208.407379 
L 300.938844 208.704922 
L 321.826545 208.799765 
L 344.491922 208.677619 
L 368.934976 208.319186 
L 380.045455 208.087205 
L 380.045455 208.087205 
" clip-path="url(#pfacfddc7c3)" style="fill: none; stroke: #4c72b0; stroke-width: 2; stroke-linecap: round"/>
   </g>
   <g id="line2d_15">
    <path d="M 24.954545 155.793325 
L 35.176186 160.536961 
L 45.397827 165.040442 
L 55.619468 169.303768 
L 65.841108 173.32694 
L 76.062749 177.109957 
L 86.28439 180.652819 
L 96.50603 183.955527 
L 106.727671 187.01808 
L 116.949312 189.840479 
L 127.170952 192.422723 
L 136.948174 194.667976 
L 146.725395 196.693503 
L 156.502617 198.499305 
L 166.279838 200.085381 
L 176.05706 201.451731 
L 185.834281 202.598356 
L 195.611503 203.525255 
L 205.388725 204.232429 
L 215.165946 204.719877 
L 224.943168 204.987599 
L 234.720389 205.035596 
L 244.497611 204.863867 
L 254.274832 204.472413 
L 264.052054 203.861233 
L 273.829275 203.030327 
L 283.606497 201.979696 
L 293.383718 200.709339 
L 303.16094 199.219256 
L 312.938161 197.509448 
L 322.715383 195.579914 
L 332.492604 193.430655 
L 342.269826 191.06167 
L 352.047047 188.472959 
L 362.268688 185.531646 
L 372.490329 182.350178 
L 380.045455 179.844306 
L 380.045455 179.844306 
" clip-path="url(#pfacfddc7c3)" style="fill: none; stroke-dasharray: 7.4,3.2; stroke-dashoffset: 0; stroke: #c44e52; stroke-width: 2"/>
   </g>
   <g id="line2d_16">
    <path d="M 37.695898 -1 
L 39.175959 11.014879 
L 40.953635 23.777326 
L 42.731312 35.091592 
L 44.953408 47.605559 
L 47.175503 58.660696 
L 49.397599 68.532068 
L 51.619695 77.423605 
L 53.841791 85.49069 
L 56.508306 94.251629 
L 59.174821 102.161744 
L 61.841336 109.347794 
L 64.507851 115.910165 
L 67.174366 121.929712 
L 70.2853 128.353954 
L 73.396234 134.214567 
L 76.507168 139.581352 
L 79.618102 144.511892 
L 82.729036 149.054254 
L 86.28439 153.821916 
L 89.839743 158.186302 
L 93.395096 162.190269 
L 96.950449 165.870187 
L 100.505803 169.257182 
L 104.505575 172.750706 
L 108.505348 175.940324 
L 112.50512 178.854371 
L 116.949312 181.79875 
L 121.393503 184.462319 
L 125.837695 186.870312 
L 130.726306 189.250066 
L 135.614916 191.372599 
L 140.503527 193.260099 
L 145.836557 195.07391 
L 151.169587 196.65321 
L 156.947036 198.121891 
L 162.724485 199.35964 
L 168.946353 200.456012 
L 175.168222 201.327258 
L 181.834509 202.031596 
L 188.500796 202.518149 
L 195.611503 202.816631 
L 203.166629 202.904654 
L 210.721754 202.775807 
L 218.721299 202.422159 
L 227.165263 201.826023 
L 236.053647 200.971435 
L 245.386449 199.844076 
L 255.16367 198.431188 
L 265.385311 196.72147 
L 276.051371 194.704966 
L 287.16185 192.372955 
L 298.716748 189.717845 
L 310.716066 186.733063 
L 323.159802 183.412954 
L 336.492377 179.622673 
L 350.269371 175.473754 
L 364.935203 170.819414 
L 380.045455 165.789004 
L 380.045455 165.789004 
" clip-path="url(#pfacfddc7c3)" style="fill: none; stroke-dasharray: 7.4,3.2; stroke-dashoffset: 0; stroke: #55a868; stroke-width: 2"/>
   </g>
   <g id="patch_3">
    <path d="M 7.2 228.96 
L 7.2 7.2 
" style="fill: none; stroke: #cccccc; stroke-width: 1.875; stroke-linejoin: miter; stroke-linecap: square"/>
   </g>
   <g id="patch_4">
    <path d="M 397.8 228.96 
L 397.8 7.2 
" style="fill: none; stroke: #cccccc; stroke-width: 1.875; stroke-linejoin: miter; stroke-linecap: square"/>
   </g>
   <g id="patch_5">
    <path d="M 7.2 228.96 
L 397.8 228.96 
" style="fill: none; stroke: #cccccc; stroke-width: 1.875; stroke-linejoin: miter; stroke-linecap: square"/>
   </g>
   <g id="patch_6">
    <path d="M 7.2 7.2 
L 397.8 7.2 
" style="fill: none; stroke: #cccccc; stroke-width: 1.875; stroke-linejoin: miter; stroke-linecap: square"/>
   </g>
   <g id="legend_1">
    <g id="patch_7">
     <path d="M 171.915 90.419297 
L 386.25 90.419297 
Q 389.55 90.419297 389.55 87.119297 
L 389.55 18.75 
Q 389.55 15.45 386.25 15.45 
L 171.915 15.45 
Q 168.615 15.45 168.615 18.75 
L 168.615 87.119297 
Q 168.615 90.419297 171.915 90.419297 
z
" style="fill: #ffffff; opacity: 0.8; stroke: #cccccc; stroke-width: 1.5; stroke-linejoin: miter"/>
    </g>
    <g id="line2d_17">
     <path d="M 175.215 28.085391 
L 191.715 28.085391 
L 208.215 28.085391 
" style="fill: none; stroke: #4c72b0; stroke-width: 2; stroke-linecap: round"/>
    </g>
    <g id="text_1">
     <!-- $f$ -->
     <g style="fill: #262626" transform="translate(221.415 33.860391) scale(0.165 -0.165)">
      <defs>
       <path id="DejaVuSans-Oblique-66" d="M 3059 4863 
L 2969 4384 
L 2419 4384 
Q 2106 4384 1964 4261 
Q 1822 4138 1753 3809 
L 1691 3500 
L 2638 3500 
L 2553 3053 
L 1606 3053 
L 1013 0 
L 434 0 
L 1031 3053 
L 481 3053 
L 563 3500 
L 1113 3500 
L 1159 3744 
Q 1278 4363 1576 4613 
Q 1875 4863 2516 4863 
L 3059 4863 
z
" transform="scale(0.015625)"/>
      </defs>
      <use xlink:href="#DejaVuSans-Oblique-66" transform="translate(0 0.015625)"/>
     </g>
    </g>
    <g id="line2d_18">
     <path d="M 175.215 51.425156 
L 191.715 51.425156 
L 208.215 51.425156 
" style="fill: none; stroke-dasharray: 7.4,3.2; stroke-dashoffset: 0; stroke: #c44e52; stroke-width: 2"/>
    </g>
    <g id="text_2">
     <!-- $L$-smoothness -->
     <g style="fill: #262626" transform="translate(221.415 57.200156) scale(0.165 -0.165)">
      <defs>
       <path id="DejaVuSans-Oblique-4c" d="M 1075 4666 
L 1709 4666 
L 909 525 
L 3181 525 
L 3078 0 
L 172 0 
L 1075 4666 
z
" transform="scale(0.015625)"/>
       <path id="ArialMT-2d" d="M 203 1375 
L 203 1941 
L 1931 1941 
L 1931 1375 
L 203 1375 
z
" transform="scale(0.015625)"/>
       <path id="ArialMT-73" d="M 197 991 
L 753 1078 
Q 800 744 1014 566 
Q 1228 388 1613 388 
Q 2000 388 2187 545 
Q 2375 703 2375 916 
Q 2375 1106 2209 1216 
Q 2094 1291 1634 1406 
Q 1016 1563 777 1677 
Q 538 1791 414 1992 
Q 291 2194 291 2438 
Q 291 2659 392 2848 
Q 494 3038 669 3163 
Q 800 3259 1026 3326 
Q 1253 3394 1513 3394 
Q 1903 3394 2198 3281 
Q 2494 3169 2634 2976 
Q 2775 2784 2828 2463 
L 2278 2388 
Q 2241 2644 2061 2787 
Q 1881 2931 1553 2931 
Q 1166 2931 1000 2803 
Q 834 2675 834 2503 
Q 834 2394 903 2306 
Q 972 2216 1119 2156 
Q 1203 2125 1616 2013 
Q 2213 1853 2448 1751 
Q 2684 1650 2818 1456 
Q 2953 1263 2953 975 
Q 2953 694 2789 445 
Q 2625 197 2315 61 
Q 2006 -75 1616 -75 
Q 969 -75 630 194 
Q 291 463 197 991 
z
" transform="scale(0.015625)"/>
       <path id="ArialMT-6d" d="M 422 0 
L 422 3319 
L 925 3319 
L 925 2853 
Q 1081 3097 1340 3245 
Q 1600 3394 1931 3394 
Q 2300 3394 2536 3241 
Q 2772 3088 2869 2813 
Q 3263 3394 3894 3394 
Q 4388 3394 4653 3120 
Q 4919 2847 4919 2278 
L 4919 0 
L 4359 0 
L 4359 2091 
Q 4359 2428 4304 2576 
Q 4250 2725 4106 2815 
Q 3963 2906 3769 2906 
Q 3419 2906 3187 2673 
Q 2956 2441 2956 1928 
L 2956 0 
L 2394 0 
L 2394 2156 
Q 2394 2531 2256 2718 
Q 2119 2906 1806 2906 
Q 1569 2906 1367 2781 
Q 1166 2656 1075 2415 
Q 984 2175 984 1722 
L 984 0 
L 422 0 
z
" transform="scale(0.015625)"/>
       <path id="ArialMT-6f" d="M 213 1659 
Q 213 2581 725 3025 
Q 1153 3394 1769 3394 
Q 2453 3394 2887 2945 
Q 3322 2497 3322 1706 
Q 3322 1066 3130 698 
Q 2938 331 2570 128 
Q 2203 -75 1769 -75 
Q 1072 -75 642 372 
Q 213 819 213 1659 
z
M 791 1659 
Q 791 1022 1069 705 
Q 1347 388 1769 388 
Q 2188 388 2466 706 
Q 2744 1025 2744 1678 
Q 2744 2294 2464 2611 
Q 2184 2928 1769 2928 
Q 1347 2928 1069 2612 
Q 791 2297 791 1659 
z
" transform="scale(0.015625)"/>
       <path id="ArialMT-74" d="M 1650 503 
L 1731 6 
Q 1494 -44 1306 -44 
Q 1000 -44 831 53 
Q 663 150 594 308 
Q 525 466 525 972 
L 525 2881 
L 113 2881 
L 113 3319 
L 525 3319 
L 525 4141 
L 1084 4478 
L 1084 3319 
L 1650 3319 
L 1650 2881 
L 1084 2881 
L 1084 941 
Q 1084 700 1114 631 
Q 1144 563 1211 522 
Q 1278 481 1403 481 
Q 1497 481 1650 503 
z
" transform="scale(0.015625)"/>
       <path id="ArialMT-68" d="M 422 0 
L 422 4581 
L 984 4581 
L 984 2938 
Q 1378 3394 1978 3394 
Q 2347 3394 2619 3248 
Q 2891 3103 3008 2847 
Q 3125 2591 3125 2103 
L 3125 0 
L 2563 0 
L 2563 2103 
Q 2563 2525 2380 2717 
Q 2197 2909 1863 2909 
Q 1613 2909 1392 2779 
Q 1172 2650 1078 2428 
Q 984 2206 984 1816 
L 984 0 
L 422 0 
z
" transform="scale(0.015625)"/>
       <path id="ArialMT-6e" d="M 422 0 
L 422 3319 
L 928 3319 
L 928 2847 
Q 1294 3394 1984 3394 
Q 2284 3394 2536 3286 
Q 2788 3178 2913 3003 
Q 3038 2828 3088 2588 
Q 3119 2431 3119 2041 
L 3119 0 
L 2556 0 
L 2556 2019 
Q 2556 2363 2490 2533 
Q 2425 2703 2258 2804 
Q 2091 2906 1866 2906 
Q 1506 2906 1245 2678 
Q 984 2450 984 1813 
L 984 0 
L 422 0 
z
" transform="scale(0.015625)"/>
       <path id="ArialMT-65" d="M 2694 1069 
L 3275 997 
Q 3138 488 2766 206 
Q 2394 -75 1816 -75 
Q 1088 -75 661 373 
Q 234 822 234 1631 
Q 234 2469 665 2931 
Q 1097 3394 1784 3394 
Q 2450 3394 2872 2941 
Q 3294 2488 3294 1666 
Q 3294 1616 3291 1516 
L 816 1516 
Q 847 969 1125 678 
Q 1403 388 1819 388 
Q 2128 388 2347 550 
Q 2566 713 2694 1069 
z
M 847 1978 
L 2700 1978 
Q 2663 2397 2488 2606 
Q 2219 2931 1791 2931 
Q 1403 2931 1139 2672 
Q 875 2413 847 1978 
z
" transform="scale(0.015625)"/>
      </defs>
      <use xlink:href="#DejaVuSans-Oblique-4c" transform="translate(0 0.09375)"/>
      <use xlink:href="#ArialMT-2d" transform="translate(55.712891 0.09375)"/>
      <use xlink:href="#ArialMT-73" transform="translate(89.013672 0.09375)"/>
      <use xlink:href="#ArialMT-6d" transform="translate(139.013672 0.09375)"/>
      <use xlink:href="#ArialMT-6f" transform="translate(222.314453 0.09375)"/>
      <use xlink:href="#ArialMT-6f" transform="translate(277.929688 0.09375)"/>
      <use xlink:href="#ArialMT-74" transform="translate(333.544922 0.09375)"/>
      <use xlink:href="#ArialMT-68" transform="translate(361.328125 0.09375)"/>
      <use xlink:href="#ArialMT-6e" transform="translate(416.943359 0.09375)"/>
      <use xlink:href="#ArialMT-65" transform="translate(472.558594 0.09375)"/>
      <use xlink:href="#ArialMT-73" transform="translate(528.173828 0.09375)"/>
      <use xlink:href="#ArialMT-73" transform="translate(578.173828 0.09375)"/>
     </g>
    </g>
    <g id="line2d_19">
     <path d="M 175.215 74.764922 
L 191.715 74.764922 
L 208.215 74.764922 
" style="fill: none; stroke-dasharray: 7.4,3.2; stroke-dashoffset: 0; stroke: #55a868; stroke-width: 2"/>
    </g>
    <g id="text_3">
     <!-- $L$-relative smoothness -->
     <g style="fill: #262626" transform="translate(221.415 80.539922) scale(0.165 -0.165)">
      <defs>
       <path id="ArialMT-72" d="M 416 0 
L 416 3319 
L 922 3319 
L 922 2816 
Q 1116 3169 1280 3281 
Q 1444 3394 1641 3394 
Q 1925 3394 2219 3213 
L 2025 2691 
Q 1819 2813 1613 2813 
Q 1428 2813 1281 2702 
Q 1134 2591 1072 2394 
Q 978 2094 978 1738 
L 978 0 
L 416 0 
z
" transform="scale(0.015625)"/>
       <path id="ArialMT-6c" d="M 409 0 
L 409 4581 
L 972 4581 
L 972 0 
L 409 0 
z
" transform="scale(0.015625)"/>
       <path id="ArialMT-61" d="M 2588 409 
Q 2275 144 1986 34 
Q 1697 -75 1366 -75 
Q 819 -75 525 192 
Q 231 459 231 875 
Q 231 1119 342 1320 
Q 453 1522 633 1644 
Q 813 1766 1038 1828 
Q 1203 1872 1538 1913 
Q 2219 1994 2541 2106 
Q 2544 2222 2544 2253 
Q 2544 2597 2384 2738 
Q 2169 2928 1744 2928 
Q 1347 2928 1158 2789 
Q 969 2650 878 2297 
L 328 2372 
Q 403 2725 575 2942 
Q 747 3159 1072 3276 
Q 1397 3394 1825 3394 
Q 2250 3394 2515 3294 
Q 2781 3194 2906 3042 
Q 3031 2891 3081 2659 
Q 3109 2516 3109 2141 
L 3109 1391 
Q 3109 606 3145 398 
Q 3181 191 3288 0 
L 2700 0 
Q 2613 175 2588 409 
z
M 2541 1666 
Q 2234 1541 1622 1453 
Q 1275 1403 1131 1340 
Q 988 1278 909 1158 
Q 831 1038 831 891 
Q 831 666 1001 516 
Q 1172 366 1500 366 
Q 1825 366 2078 508 
Q 2331 650 2450 897 
Q 2541 1088 2541 1459 
L 2541 1666 
z
" transform="scale(0.015625)"/>
       <path id="ArialMT-69" d="M 425 3934 
L 425 4581 
L 988 4581 
L 988 3934 
L 425 3934 
z
M 425 0 
L 425 3319 
L 988 3319 
L 988 0 
L 425 0 
z
" transform="scale(0.015625)"/>
       <path id="ArialMT-76" d="M 1344 0 
L 81 3319 
L 675 3319 
L 1388 1331 
Q 1503 1009 1600 663 
Q 1675 925 1809 1294 
L 2547 3319 
L 3125 3319 
L 1869 0 
L 1344 0 
z
" transform="scale(0.015625)"/>
       <path id="ArialMT-20" transform="scale(0.015625)"/>
      </defs>
      <use xlink:href="#DejaVuSans-Oblique-4c" transform="translate(0 0.09375)"/>
      <use xlink:href="#ArialMT-2d" transform="translate(55.712891 0.09375)"/>
      <use xlink:href="#ArialMT-72" transform="translate(89.013672 0.09375)"/>
      <use xlink:href="#ArialMT-65" transform="translate(122.314453 0.09375)"/>
      <use xlink:href="#ArialMT-6c" transform="translate(177.929688 0.09375)"/>
      <use xlink:href="#ArialMT-61" transform="translate(200.146484 0.09375)"/>
      <use xlink:href="#ArialMT-74" transform="translate(255.761719 0.09375)"/>
      <use xlink:href="#ArialMT-69" transform="translate(283.544922 0.09375)"/>
      <use xlink:href="#ArialMT-76" transform="translate(305.761719 0.09375)"/>
      <use xlink:href="#ArialMT-65" transform="translate(355.761719 0.09375)"/>
      <use xlink:href="#ArialMT-20" transform="translate(411.376953 0.09375)"/>
      <use xlink:href="#ArialMT-73" transform="translate(439.160156 0.09375)"/>
      <use xlink:href="#ArialMT-6d" transform="translate(489.160156 0.09375)"/>
      <use xlink:href="#ArialMT-6f" transform="translate(572.460938 0.09375)"/>
      <use xlink:href="#ArialMT-6f" transform="translate(628.076172 0.09375)"/>
      <use xlink:href="#ArialMT-74" transform="translate(683.691406 0.09375)"/>
      <use xlink:href="#ArialMT-68" transform="translate(711.474609 0.09375)"/>
      <use xlink:href="#ArialMT-6e" transform="translate(767.089844 0.09375)"/>
      <use xlink:href="#ArialMT-65" transform="translate(822.705078 0.09375)"/>
      <use xlink:href="#ArialMT-73" transform="translate(878.320312 0.09375)"/>
      <use xlink:href="#ArialMT-73" transform="translate(928.320312 0.09375)"/>
     </g>
    </g>
   </g>
  </g>
 </g>
 <defs>
  <clipPath id="pfacfddc7c3">
   <rect x="7.2" y="7.2" width="390.6" height="221.76"/>
  </clipPath>
 </defs>
</svg>
